<?xml version="1.0" encoding="utf-8"?>
<!-- Generator: Adobe Illustrator 16.0.0, SVG Export Plug-In . SVG Version: 6.00 Build 0)  -->
<!DOCTYPE svg PUBLIC "-//W3C//DTD SVG 1.1//EN" "http://www.w3.org/Graphics/SVG/1.1/DTD/svg11.dtd">
<svg version="1.1" id="Layer_1" xmlns="http://www.w3.org/2000/svg" xmlns:xlink="http://www.w3.org/1999/xlink" x="0px" y="0px"
	 width="62px" height="34px" viewBox="0 0 62 34" enable-background="new 0 0 62 34" xml:space="preserve">
<g id="Icon_9_">
	<g>
		<g>
			<path fill="#FFFFFF" d="M39.79,13.979c-0.876-4.316-4.629-7.568-9.194-7.568c-3.627,0-6.754,2.064-8.318,5.066
				c-3.753,0.375-6.692,3.564-6.692,7.443c0,4.127,3.378,7.505,7.505,7.505h16.261c3.44,0,6.255-2.814,6.255-6.254
				C45.606,16.855,43.042,14.166,39.79,13.979z M39.352,23.924H23.09c-2.752,0-5.003-2.252-5.003-5.004s2.251-5.004,5.003-5.004
				h0.875c0.813-2.877,3.44-5.004,6.63-5.004c3.815,0,6.88,3.065,6.88,6.88v0.626h1.876c2.064,0,3.753,1.688,3.753,3.753
				C43.104,22.234,41.416,23.924,39.352,23.924z"/>
		</g>
	</g>
</g>
</svg>
